<svg height="40" viewBox="0 0 128 128" width="33" xmlns="http://www.w3.org/2000/svg"><path d="m105.921 70.979v-47.651a6.085 6.085 0 0 0 -6.078-6.078h-71.686a6.085 6.085 0 0 0 -6.078 6.078v47.651a5.975 5.975 0 0 0 -4.829 5.855v.5a5.974 5.974 0 0 0 5.967 5.966h15.891l-3.625 19.417a6.789 6.789 0 0 0 13.348 2.491l4.09-21.908h22.158l4.09 21.907a6.789 6.789 0 0 0 13.348-2.49l-3.625-19.417h15.891a5.974 5.974 0 0 0 5.967-5.967v-.5a5.975 5.975 0 0 0 -4.829-5.854zm-80.342-47.651a2.58 2.58 0 0 1 2.578-2.578h71.686a2.58 2.58 0 0 1 2.578 2.578v47.539h-7.071v-5.45a5.241 5.241 0 0 0 -5.236-5.235h-16.5a5.241 5.241 0 0 0 -5.236 5.235v5.45h-42.8zm66.271 47.539h-19.972v-5.45a1.737 1.737 0 0 1 1.736-1.735h16.5a1.737 1.737 0 0 1 1.736 1.735zm-46.46 33.7a3.288 3.288 0 1 1 -6.465-1.207l3.744-20.06h6.691zm43.685-1.207a3.288 3.288 0 1 1 -6.465 1.207l-3.97-21.267h6.691zm18.175-26.028a2.47 2.47 0 0 1 -2.467 2.467h-81.566a2.47 2.47 0 0 1 -2.467-2.467v-.5a2.47 2.47 0 0 1 2.467-2.467h81.566a2.47 2.47 0 0 1 2.467 2.467z" style="fill:#86E3CE;fill-opacity:1;fill-rule:nonzero;stroke:none"/></svg>