<?xml version="1.0" encoding="iso-8859-1"?>
<!-- Generator: Adobe Illustrator 19.0.0, SVG Export Plug-In . SVG Version: 6.00 Build 0)  -->
<svg version="1.1" id="Capa_1" xmlns="http://www.w3.org/2000/svg" xmlns:xlink="http://www.w3.org/1999/xlink" x="0px" y="0px"
	 viewBox="0 0 477.867 477.867" style="enable-background:new 0 0 477.867 477.867;" xml:space="preserve" height="40" width="33">
<g>
	<g>
		<path d="M119.467,0h-102.4C7.641,0,0,7.641,0,17.067v102.4c0,9.426,7.641,17.067,17.067,17.067h102.4
			c9.426,0,17.067-7.641,17.067-17.067v-102.4C136.533,7.641,128.892,0,119.467,0z M102.4,102.4H34.133V34.133H102.4V102.4z" style="fill:#E8F3F1;fill-opacity:1;fill-rule:nonzero;stroke:none"/>
	</g>
</g>
<g>
	<g>
		<path d="M119.467,170.667h-102.4C7.641,170.667,0,178.308,0,187.733v102.4c0,9.426,7.641,17.067,17.067,17.067h102.4
			c9.426,0,17.067-7.641,17.067-17.067v-102.4C136.533,178.308,128.892,170.667,119.467,170.667z M102.4,273.067H34.133V204.8H102.4
			V273.067z" style="fill:#E8F3F1;fill-opacity:1;fill-rule:nonzero;stroke:none"/>
	</g>
</g>
<g>
	<g>
		<path d="M119.467,341.333h-102.4C7.641,341.333,0,348.974,0,358.4v102.4c0,9.426,7.641,17.067,17.067,17.067h102.4
			c9.426,0,17.067-7.641,17.067-17.067V358.4C136.533,348.974,128.892,341.333,119.467,341.333z M102.4,443.733H34.133v-68.267
			H102.4V443.733z" style="fill:#E8F3F1;fill-opacity:1;fill-rule:nonzero;stroke:none"/>
	</g>
</g>
<g>
	<g>
		<path d="M460.8,51.2H187.733c-9.426,0-17.067,7.641-17.067,17.067s7.641,17.067,17.067,17.067H460.8
			c9.426,0,17.067-7.641,17.067-17.067S470.226,51.2,460.8,51.2z" style="fill:#E8F3F1;fill-opacity:1;fill-rule:nonzero;stroke:none"/>
	</g>
</g>
<g>
	<g>
		<path d="M460.8,221.867H187.733c-9.426,0-17.067,7.641-17.067,17.067S178.308,256,187.733,256H460.8
			c9.426,0,17.067-7.641,17.067-17.067S470.226,221.867,460.8,221.867z" style="fill:#E8F3F1;fill-opacity:1;fill-rule:nonzero;stroke:none"/>
	</g>
</g>
<g>
	<g>
		<path d="M460.8,392.533H187.733c-9.426,0-17.067,7.641-17.067,17.067s7.641,17.067,17.067,17.067H460.8
			c9.426,0,17.067-7.641,17.067-17.067S470.226,392.533,460.8,392.533z" style="fill:#E8F3F1;fill-opacity:1;fill-rule:nonzero;stroke:none"/>
	</g>
</g>
<g>
</g>
<g>
</g>
<g>
</g>
<g>
</g>
<g>
</g>
<g>
</g>
<g>
</g>
<g>
</g>
<g>
</g>
<g>
</g>
<g>
</g>
<g>
</g>
<g>
</g>
<g>
</g>
<g>
</g>
</svg>
