<svg id="Capa_1" enable-background="new 0 0 512 512" height="80" width="70" viewBox="0 0 512 512" xmlns="http://www.w3.org/2000/svg" style="fill:#86E3CE;fill-opacity:1;fill-rule:nonzero;stroke:none"><g><g><path d="m176.357 467.837c0 4.289-3.477 7.767-7.766 7.767s-7.766-3.477-7.766-7.767c0-4.289 3.477-7.766 7.766-7.766s7.766 3.477 7.766 7.766z"/><circle cx="114.127" cy="433.172" r="14.25"/><path d="m370.168 38.853 8.245 23.184c.353.993 1.052 1.779 1.934 2.176l20.598 9.281c2.91 1.311 2.91 5.948 0 7.259l-20.598 9.281c-.882.397-1.581 1.184-1.934 2.177l-8.245 23.184c-1.165 3.276-5.284 3.276-6.449 0l-8.245-23.184c-.353-.993-1.052-1.779-1.934-2.177l-20.598-9.281c-2.91-1.311-2.91-5.948 0-7.259l20.598-9.281c.882-.397 1.581-1.184 1.934-2.176l8.245-23.184c1.164-3.276 5.284-3.276 6.449 0z"/></g><g><path d="m253.966 103.841c-82.09 0-148.876 66.785-148.876 148.876 0 82.09 66.785 148.876 148.876 148.876s148.875-66.785 148.875-148.876c.001-82.09-66.785-148.876-148.875-148.876zm128.575 148.877c0 8.419-.823 16.647-2.375 24.619-.261.083-.52.178-.774.299-26.888 12.79-70.027 19.483-92.84 7.989-8.218-4.14-13.007-10.209-14.642-18.551-2.32-11.848 7.892-36.203 11.806-41.626 5.468-7.576 7.128-16.77 4.332-23.994-2.483-6.417-8.253-10.877-16.247-12.558-1.176-.247-2.401-.477-3.658-.712-9.234-1.728-17.957-3.36-21.897-14.543-7.633-21.667 28.023-40.828 38.283-45.819 56.189 13.752 98.012 64.528 98.012 124.896zm-239.811-64.422c16.685 5.026 40.625 16.572 40.088 25.895-.761 13.222-8.266 26.013-57.152 30.225 1.304-20.346 7.355-39.42 17.064-56.12zm-3.947 121.509c13.968-7.048 39.726-16.561 53.899-7.111 4.136 2.758 3.99 6.112 1.339 16.217-2.196 8.369-5.203 19.83 4.374 27.811 3.986 3.322 10.304 4.349 19.049 5.77 16.084 2.614 39.553 6.441 56.743 27.206-6.59 1.045-13.343 1.595-20.222 1.595-50.403 0-94.117-29.158-115.182-71.488zm148.579 67.08c-20.298-28.649-49.937-33.486-67.963-36.416-5.247-.852-11.777-1.914-13.206-3.105-3.285-2.737-2.642-6.783-.391-15.363 2.375-9.051 5.628-21.447-6.364-29.442-20.309-13.54-51.536-.877-65.555 6.102-5.034-13.113-7.981-27.251-8.427-42.008 24.832-2.041 42.239-6.448 53.184-13.474 10.279-6.599 15.623-15.853 16.338-28.29.598-10.391-7.957-20.12-25.427-28.914-7.743-3.899-15.461-6.735-19.958-8.257 23.365-32.425 61.443-53.578 104.372-53.578 3.725 0 7.41.169 11.056.481-16.842 10.56-38.594 29.421-30.265 53.066 6.277 17.815 21.243 20.616 31.147 22.468 1.165.218 2.301.43 3.391.66 3.934.827 6.421 2.521 7.395 5.034 1.284 3.318.139 8.329-2.85 12.471-4.829 6.691-17.102 34.652-13.881 51.094 2.337 11.939 9.639 21.307 21.114 27.088 10.176 5.127 22.761 7.19 35.921 7.19 20.771-.002 42.968-5.145 59.341-11.504-13.322 41.207-46.916 73.375-88.972 84.697z"/><path d="m291.135 341.667c-3.363 0-6.09-2.727-6.09-6.09v-12.281c0-3.363 2.727-6.09 6.09-6.09s6.09 2.727 6.09 6.09v12.281c.001 3.363-2.726 6.09-6.09 6.09z"/><path d="m342.137 273.542c-3.363 0-6.09-2.727-6.09-6.09v-12.282c0-3.363 2.727-6.09 6.09-6.09s6.09 2.727 6.09 6.09v12.281c0 3.364-2.726 6.091-6.09 6.091z"/><path d="m321.326 249.146c-3.363 0-6.09-2.727-6.09-6.09v-12.281c0-3.363 2.727-6.09 6.09-6.09s6.09 2.727 6.09 6.09v12.281c0 3.364-2.726 6.09-6.09 6.09z"/><path d="m157.228 84.438c4.569 2.47 10.156 4.334 16.419 5.311 7.897 1.231 15.666.795 21.878-1.23 7.609-2.48 12.308-7.106 13.231-13.026 1.712-10.983-10.8-21.415-29.102-24.269-3.16-.492-6.22-.711-9.136-.69-.116-.349-.261-.693-.445-1.027-.347-.629-.793-1.166-1.302-1.616 1.574-3.748 2.78-7.999 3.5-12.621 1.232-7.898.795-15.668-1.23-21.879-2.481-7.61-7.107-12.31-13.026-13.231-5.919-.924-11.757 2.144-16.436 8.636-3.82 5.3-6.602 12.568-7.833 20.464-2.099 13.462.672 25.166 6.649 31.109-6.801 4.696-13.356 9.711-19.638 15.035.023-.999.026-2.011-.002-3.038-.217-7.989-2.052-15.552-5.167-21.294-3.816-7.036-9.217-10.819-15.205-10.657-5.989.163-11.174 4.235-14.602 11.468-2.798 5.903-4.219 13.555-4.001 21.544.361 13.274 4.97 24.071 11.64 29.021-3.878 4.474-7.601 9.09-11.164 13.841-.022-.2-.04-.398-.065-.599-2.253-18.387-12.27-31.235-23.304-29.881-11.031 1.353-17.65 16.237-15.397 34.625.972 7.933 3.515 15.288 7.158 20.711 2.314 3.443 4.969 5.976 7.818 7.516.841.454 1.699.812 2.57 1.092-20.973 39.602-31.041 84.006-29.115 128.57.096 2.221 1.37 4.112 3.193 5.098.935.506 2.015.773 3.155.723 3.36-.145 5.966-2.987 5.822-6.347-1.738-40.205 6.784-80.279 24.689-116.455 1.137.997 2.434 1.914 3.921 2.718 1.183.639 2.474 1.215 3.866 1.719 6.142 2.226 13.893 2.917 21.826 1.945 18.386-2.254 31.232-12.272 29.881-23.304-1.352-11.033-16.238-17.65-34.625-15.397-2.222.273-4.361.661-6.406 1.148 4.164-5.962 8.587-11.717 13.253-17.252 1.677 3.196 4.644 5.954 8.579 8.082 5.863 3.17 13.862 4.944 22.887 4.699 7.989-.217 15.552-2.052 21.295-5.168 7.035-3.815 10.82-9.215 10.656-15.204-.302-11.11-14.495-19.108-33.012-18.604-1.714.047-3.401.182-5.061.374 6.16-5.387 12.606-10.456 19.31-15.195 1.655 4.815 5.947 9.22 12.078 12.535zm20.549-21.179c5.318.83 9.503 2.357 12.574 4.017 4.457 2.41 6.564 5.099 6.37 6.341-.113.721-1.529 2.201-4.972 3.323-4.36 1.421-10.274 1.704-16.227.776-13.036-2.033-19.27-8.26-18.944-10.358.328-2.099 8.161-6.132 21.199-4.099zm-31.995-32.12c.928-5.953 2.998-11.5 5.679-15.22 2.117-2.937 3.957-3.836 4.678-3.723.101.016.217.057.345.127.784.424 2.012 1.885 2.976 4.844 1.421 4.36 1.704 10.275.776 16.227-2.033 13.038-8.26 19.271-10.357 18.945-2.089-.334-6.131-8.161-4.097-21.2zm-43.962 62.067c-2.121.05-7.506-6.919-7.865-20.108-.164-6.022.869-11.852 2.833-15.996 1.55-3.271 3.197-4.488 3.927-4.508.188-.005.443.066.747.23.869.47 2.14 1.699 3.42 4.058 2.186 4.031 3.534 9.796 3.698 15.819.216 7.923-1.502 13.687-3.368 17.055-1.133 1.138-2.258 2.286-3.369 3.446-.008-.001-.016.003-.023.004zm-36.509 45.021c-.725.088-2.533-.871-4.553-3.875-2.558-3.807-4.445-9.419-5.178-15.398-1.605-13.097 2.682-20.795 4.788-21.053.301-.037.681.063 1.117.299 2.619 1.416 7.239 7.747 8.615 18.975 1.606 13.097-2.682 20.794-4.789 21.052zm29.821 2.887c8.787-1.077 15.143.499 18.453 2.288 1.624.878 2.515 1.807 2.599 2.501.258 2.107-6.175 8.127-19.273 9.733-5.98.733-11.882.257-16.192-1.306-3.403-1.237-4.771-2.76-4.86-3.484-.258-2.108 6.175-8.127 19.273-9.732zm36.101-42.214c7.802-.213 13.527 1.449 16.916 3.281 2.34 1.265 3.566 2.612 3.59 3.479.02.728-1.106 2.44-4.289 4.166-4.031 2.187-9.796 3.535-15.819 3.699-13.191.36-20.447-4.637-20.505-6.76-.02-.728 1.106-2.44 4.289-4.166 4.031-2.188 9.796-3.535 15.818-3.699z"/><path d="m464.034 411.53c2.122-6.178 2.681-13.94 1.575-21.856-1.107-7.916-3.773-15.226-7.509-20.586-2.922-4.193-6.339-6.989-9.971-8.252.612-1.093 1.221-2.189 1.817-3.293 21.107-39.041 31.569-82.993 30.256-127.103-.1-3.361-2.906-6.009-6.269-5.906-3.362.101-6.006 2.907-5.906 6.269 1.228 41.223-8.365 82.303-27.744 118.962-2.157-2.014-5.017-3.669-8.515-4.869-6.179-2.123-13.94-2.682-21.856-1.576-7.916 1.107-15.226 3.773-20.586 7.509-6.566 4.576-9.725 10.364-8.895 16.297.671 4.803 3.904 8.722 8.86 11.401 6.402 3.461 15.678 4.853 26.02 3.407 1.813-.254 3.589-.598 5.323-1.01-4.049 5.447-8.317 10.714-12.799 15.783-4.957-7.048-16.642-11.425-30.775-10.8-7.985.353-15.515 2.316-21.204 5.527-6.969 3.935-10.662 9.398-10.397 15.384.246 5.556 3.956 10.274 9.921 13.499 5.845 3.16 13.86 4.873 22.897 4.549-4.964 3.978-10.095 7.758-15.377 11.336-1.509-2.207-3.62-4.287-6.313-6.159-5.362-3.733-12.676-6.387-20.594-7.485-18.349-2.544-33.337 3.839-34.864 14.85-.981 7.079 3.914 13.832 12.415 18.426 4.717 2.55 10.546 4.437 17.095 5.344 4.183.58 8.315.681 12.2.347-2.184 4.537-3.767 9.848-4.548 15.481-1.097 7.917-.529 15.678 1.601 21.854 1.903 5.52 4.922 9.471 8.72 11.525 1.407.761 2.923 1.261 4.527 1.484 5.934.823 11.719-2.343 16.287-8.915 3.729-5.363 6.387-12.677 7.485-20.594 1.097-7.917.529-15.678-1.601-21.854-1.989-5.77-5.2-9.819-9.243-11.785 8.092-5.276 15.855-11 23.254-17.145-.205 2.391-.263 4.885-.149 7.465.353 7.985 2.316 15.515 5.527 21.204 2.3 4.073 5.121 7.027 8.263 8.726 2.235 1.208 4.633 1.781 7.121 1.671 11.103-.491 18.859-14.816 18.04-33.323-.353-7.985-2.316-15.515-5.526-21.204-2.254-3.992-5.011-6.903-8.079-8.617 4.258-4.677 8.339-9.522 12.241-14.518.072.696.14 1.391.238 2.09 1.107 7.916 3.773 15.227 7.508 20.586 2.304 3.306 4.916 5.747 7.698 7.252 2.744 1.484 5.653 2.055 8.599 1.644 5.931-.827 10.631-5.453 13.232-13.022zm-106.409-5.248c-.032-.728 1.064-2.458 4.217-4.239 3.994-2.254 9.736-3.699 15.755-3.965 7.996-.353 13.843 1.301 17.226 3.13 2.195 1.187 3.354 2.446 3.39 3.281.032.728-1.064 2.458-4.217 4.239-3.994 2.254-9.736 3.699-15.755 3.965-13.183.582-20.523-4.291-20.616-6.411zm54.361 15.824c2.254 3.994 3.699 9.736 3.965 15.755.582 13.182-4.29 20.522-6.411 20.616-.73.031-2.457-1.065-4.239-4.217-2.254-3.994-3.699-9.736-3.965-15.755-.582-13.181 4.29-20.522 6.411-20.617.199-.009.47.066.797.243.877.473 2.146 1.679 3.442 3.975zm1.638-52.232c-13.067 1.827-20.837-2.331-21.131-4.432-.101-.723.827-2.549 3.797-4.619 3.762-2.622 9.341-4.604 15.307-5.439 5.967-.834 11.875-.458 16.213 1.032 3.422 1.178 4.818 2.678 4.918 3.4.101.723-.827 2.549-3.798 4.619-3.761 2.623-9.34 4.605-15.306 5.439zm-81.315 79.243c-13.071-1.81-19.409-7.932-19.118-10.034.292-2.103 8.056-6.27 21.126-4.457 4.882.676 9.506 2.122 13.088 4.058.796.43 1.541.886 2.226 1.362 1.444 1.004 2.399 1.948 2.995 2.739-2.047 1.239-4.111 2.455-6.2 3.635-1.147.648-1.998 1.614-2.517 2.723-3.525.526-7.543.536-11.6-.026zm31.484 15.362c1.495 4.335 1.878 10.244 1.051 16.211-.827 5.968-2.803 11.55-5.421 15.315-2.067 2.973-3.891 3.902-4.614 3.802-.721-.096-2.225-1.491-3.406-4.914-1.495-4.335-1.878-10.244-1.051-16.211.827-5.968 2.803-11.55 5.421-15.315 2.067-2.973 3.891-3.902 4.614-3.802.722.099 2.226 1.492 3.406 4.914zm85.32-51.989c-.724.102-2.549-.828-4.619-3.798-2.621-3.761-4.604-9.34-5.438-15.307s-.457-11.876 1.032-16.213c1.176-3.424 2.678-4.818 3.399-4.919.256-.036.651.058 1.145.325.902.487 2.137 1.554 3.474 3.473 2.622 3.762 4.604 9.341 5.439 15.307.834 5.967.457 11.876-1.032 16.213-1.175 3.425-2.677 4.818-3.4 4.919z"/></g></g></svg>