<svg height="80" width="70" viewBox="0 0 512 512" xmlns="http://www.w3.org/2000/svg" style="fill:#86E3CE;fill-opacity:1;fill-rule:nonzero;stroke:none"><path d="m496.757812 242.132812h-105.949218v-23.988281c0-8.28125-6.710938-14.992187-14.992188-14.992187h-7.996094v-42.347656c0-6.367188-4.019531-12.039063-10.027343-14.144532l-86.925781-30.511718v-25.941407h44.980468c8.277344 0 14.992188-6.714843 14.992188-14.992187v-59.722656c0-8.28125-6.714844-14.992188-14.992188-14.992188 0 0-58.664062-.5-59.972656-.5-8.28125 0-14.992188 6.710938-14.992188 14.992188v101.15625l-86.925781 30.511718c-6.007812 2.105469-10.027343 7.777344-10.027343 14.144532v42.347656h-7.996094c-8.28125 0-14.992188 6.710937-14.992188 14.992187v23.988281h-105.949218c-8.28125 0-14.992188 6.710938-14.992188 14.992188v239.882812c0 8.28125 6.710938 14.992188 14.992188 14.992188h481.765624c8.28125 0 14.992188-6.710938 14.992188-14.992188v-239.882812c0-8.28125-6.710938-14.992188-14.992188-14.992188zm-225.890624 239.882813h-29.984376v-51.976563c0-8.265624 6.726563-14.992187 14.992188-14.992187s14.992188 6.726563 14.992188 14.992187zm-14.992188-96.953125c-24.800781 0-44.976562 20.175781-44.976562 44.976562v51.976563h-59.972657v-248.878906h209.898438v248.878906h-59.972657v-51.976563c0-24.800781-20.175781-44.976562-44.976562-44.976562zm44.976562-324.84375h-29.984374v-29.984375h29.984374zm-126.9375 111.214844 81.960938-28.769532 81.960938 28.769532v31.71875h-163.921876zm-143.929687 280.59375h45.980469c8.277344 0 14.992187-6.710938 14.992187-14.992188 0-8.277344-6.714843-14.992187-14.992187-14.992187h-45.980469v-29.984375h45.980469c8.277344 0 14.992187-6.710938 14.992187-14.992188s-6.714843-14.992187-14.992187-14.992187h-45.980469v-29.988281h45.980469c8.277344 0 14.992187-6.710938 14.992187-14.992188 0-8.277344-6.714843-14.992188-14.992187-14.992188h-45.980469v-29.984374h90.957031v209.898437h-90.957031zm360.824219 29.988281v-209.898437h90.957031v29.984374h-45.976563c-8.28125 0-14.996093 6.714844-14.996093 14.992188 0 8.28125 6.714843 14.992188 14.996093 14.992188h45.976563v29.988281h-45.976563c-8.28125 0-14.996093 6.710937-14.996093 14.992187s6.714843 14.992188 14.996093 14.992188h45.976563v29.984375h-45.976563c-8.28125 0-14.996093 6.714843-14.996093 14.992187 0 8.28125 6.714843 14.992188 14.996093 14.992188h45.976563v29.988281zm0 0"/><path d="m225.890625 263.121094h-29.984375c-8.28125 0-14.996094 6.714844-14.996094 14.992187 0 8.28125 6.714844 14.992188 14.996094 14.992188h29.984375c8.277344 0 14.992187-6.710938 14.992187-14.992188 0-8.277343-6.714843-14.992187-14.992187-14.992187zm0 0"/><path d="m285.859375 293.105469h29.988281c8.277344 0 14.992188-6.710938 14.992188-14.992188 0-8.277343-6.714844-14.992187-14.992188-14.992187h-29.988281c-8.277344 0-14.992187 6.714844-14.992187 14.992187 0 8.28125 6.714843 14.992188 14.992187 14.992188zm0 0"/><path d="m225.890625 323.09375h-29.984375c-8.28125 0-14.996094 6.710938-14.996094 14.992188 0 8.277343 6.714844 14.992187 14.996094 14.992187h29.984375c8.277344 0 14.992187-6.714844 14.992187-14.992187 0-8.28125-6.714843-14.992188-14.992187-14.992188zm0 0"/><path d="m330.839844 338.085938c0-8.28125-6.714844-14.992188-14.992188-14.992188h-29.988281c-8.277344 0-14.992187 6.710938-14.992187 14.992188 0 8.277343 6.714843 14.992187 14.992187 14.992187h29.988281c8.277344 0 14.992188-6.710937 14.992188-14.992187zm0 0"/></svg>